<svg width="1151" height="1151" viewBox="0 0 1151 1151" fill="none" xmlns="http://www.w3.org/2000/svg">
<g clip-path="url(#clip0_6_152)">
<rect width="1151" height="1151" rx="269" fill="white"/>
<rect x="-38" y="-34" width="1226" height="1226" fill="url(#paint0_radial_6_152)"/>
<rect x="-38" y="-34" width="1226" height="1226" fill="url(#paint1_radial_6_152)"/>
<rect x="-38" y="-34" width="1226" height="1226" fill="url(#paint2_radial_6_152)"/>
<rect x="387.208" y="-347.293" width="683.773" height="683.773" transform="rotate(45 387.208 -347.293)" stroke="white" stroke-opacity="0.19"/>
<rect x="387.208" y="312.986" width="683.773" height="683.773" transform="rotate(45 387.208 312.986)" stroke="white" stroke-opacity="0.19"/>
<rect x="764.792" y="-347.293" width="683.773" height="683.773" transform="rotate(45 764.792 -347.293)" stroke="white" stroke-opacity="0.19"/>
<rect x="764.792" y="312.986" width="683.773" height="683.773" transform="rotate(45 764.792 312.986)" stroke="white" stroke-opacity="0.19"/>
<path d="M632.47 579.159C632.47 634.001 621.823 680.263 600.529 717.947C579.234 755.47 550.494 783.933 514.31 803.336C478.125 822.579 437.778 832.2 393.267 832.2C348.437 832.2 307.929 822.499 271.745 803.095C235.72 783.532 207.06 754.989 185.766 717.466C164.632 679.782 154.064 633.68 154.064 579.159C154.064 524.317 164.632 478.135 185.766 440.612C207.06 402.928 235.72 374.465 271.745 355.222C307.929 335.819 348.437 326.118 393.267 326.118C437.778 326.118 478.125 335.819 514.31 355.222C550.494 374.465 579.234 402.928 600.529 440.612C621.823 478.135 632.47 524.317 632.47 579.159ZM495.097 579.159C495.097 549.653 491.174 524.798 483.329 504.594C475.643 484.228 464.196 468.834 448.985 458.411C433.935 447.828 415.362 442.536 393.267 442.536C371.172 442.536 352.52 447.828 337.309 458.411C322.259 468.834 310.811 484.228 302.966 504.594C295.281 524.798 291.438 549.653 291.438 579.159C291.438 608.664 295.281 633.6 302.966 653.965C310.811 674.17 322.259 689.564 337.309 700.147C352.52 710.57 371.172 715.782 393.267 715.782C415.362 715.782 433.935 710.57 448.985 700.147C464.196 689.564 475.643 674.17 483.329 653.965C491.174 633.6 495.097 608.664 495.097 579.159Z" fill="white"/>
<path fill-rule="evenodd" clip-rule="evenodd" d="M630.98 730.846L631.006 730.801C655.282 688.096 666.645 637 666.645 578.84C666.645 520.696 655.288 469.663 630.993 427.095C612.881 395.241 589.696 368.955 561.489 348.604C550.909 341.047 540.33 334.025 540.33 334.025H561.489H749.038C799.692 334.025 843.453 343.84 880.322 363.47C917.35 382.94 945.884 411.028 965.921 447.735C986.118 484.281 996.217 528.089 996.217 579.159C996.217 630.228 986.198 674.116 966.161 710.822C946.124 747.369 917.751 775.457 881.043 795.087C844.335 814.557 800.974 824.293 750.961 824.293H561.489H539.557L561.489 809.228C589.675 788.828 612.86 762.587 630.98 730.846ZM746.152 711.301H695.178V447.017H742.305C767.953 447.017 789.593 450.927 807.226 458.747C825.019 466.567 838.484 480.052 847.621 499.203C856.918 518.354 861.567 545.006 861.567 579.159C861.567 613.312 856.998 639.964 847.861 659.115C838.885 678.266 825.74 691.751 808.428 699.571C791.276 707.391 770.518 711.301 746.152 711.301Z" fill="white"/>
<path d="M359.737 918.5C359.737 926.307 358.37 933.102 355.634 938.885C352.899 944.642 349.132 949.107 344.334 952.279C339.559 955.426 334.065 957 327.851 957C321.636 957 316.13 955.426 311.331 952.279C306.557 949.107 302.802 944.642 300.067 938.885C297.356 933.102 296 926.307 296 918.5C296 910.693 297.356 903.91 300.067 898.152C302.802 892.37 306.569 887.905 311.367 884.758C316.166 881.586 321.66 880 327.851 880C334.065 880 339.559 881.586 344.334 884.758C349.132 887.905 352.899 892.37 355.634 898.152C358.37 903.91 359.737 910.693 359.737 918.5ZM353.187 918.5C353.187 911.791 352.083 906.045 349.876 901.263C347.669 896.456 344.658 892.785 340.843 890.247C337.028 887.71 332.697 886.441 327.851 886.441C323.028 886.441 318.709 887.71 314.894 890.247C311.08 892.785 308.056 896.444 305.825 901.226C303.618 906.008 302.514 911.766 302.514 918.5C302.514 925.209 303.618 930.955 305.825 935.737C308.032 940.519 311.044 944.191 314.858 946.753C318.673 949.29 323.004 950.559 327.851 950.559C332.697 950.559 337.028 949.29 340.843 946.753C344.682 944.215 347.705 940.556 349.912 935.774C352.119 930.967 353.211 925.209 353.187 918.5Z" fill="white"/>
<path d="M397.607 955.975H376.013V881.025H398.903C405.933 881.025 411.943 882.513 416.933 885.49C421.948 888.466 425.787 892.736 428.45 898.298C431.113 903.861 432.445 910.534 432.445 918.317C432.445 926.173 431.077 932.919 428.342 938.555C425.631 944.167 421.672 948.473 416.465 951.474C411.283 954.475 404.997 955.975 397.607 955.975ZM382.743 949.827H397.211C403.545 949.827 408.848 948.558 413.118 946.021C417.389 943.484 420.592 939.86 422.728 935.152C424.863 930.443 425.931 924.831 425.931 918.317C425.907 911.852 424.851 906.289 422.764 901.629C420.7 896.969 417.629 893.394 413.55 890.906C409.496 888.417 404.481 887.173 398.507 887.173H382.743V949.827Z" fill="white"/>
<path d="M448.757 955.975V881.025H491.512V887.173H455.487V915.389H489.245V921.538H455.487V949.827H492.232V955.975H448.757Z" fill="white"/>
<path d="M566.658 904.447H559.892C559.388 901.885 558.477 899.518 557.157 897.347C555.861 895.151 554.23 893.236 552.262 891.601C550.295 889.967 548.064 888.698 545.568 887.795C543.073 886.892 540.374 886.441 537.471 886.441C532.816 886.441 528.569 887.673 524.731 890.137C520.916 892.602 517.857 896.225 515.553 901.007C513.274 905.764 512.134 911.595 512.134 918.5C512.134 925.453 513.274 931.309 515.553 936.067C517.857 940.824 520.916 944.435 524.731 946.899C528.569 949.339 532.816 950.559 537.471 950.559C540.374 950.559 543.073 950.108 545.568 949.205C548.064 948.302 550.295 947.046 552.262 945.435C554.23 943.801 555.861 941.885 557.157 939.69C558.477 937.494 559.388 935.115 559.892 932.553H566.658C566.058 935.993 564.931 939.202 563.275 942.178C561.644 945.13 559.556 947.717 557.013 949.937C554.494 952.157 551.591 953.889 548.304 955.134C545.017 956.378 541.406 957 537.471 957C531.281 957 525.786 955.426 520.988 952.279C516.189 949.107 512.422 944.642 509.687 938.885C506.976 933.127 505.62 926.332 505.62 918.5C505.62 910.668 506.976 903.873 509.687 898.115C512.422 892.358 516.189 887.905 520.988 884.758C525.786 881.586 531.281 880 537.471 880C541.406 880 545.017 880.622 548.304 881.866C551.591 883.086 554.494 884.819 557.013 887.063C559.556 889.283 561.644 891.87 563.275 894.822C564.931 897.774 566.058 900.982 566.658 904.447Z" fill="white"/>
<path d="M582.466 955.975V881.025H589.197V921.391H589.844L625.834 881.025H634.687L603.196 915.682L634.543 955.975H626.338L599.022 920.44L589.197 931.638V955.975H582.466Z" fill="white"/>
<path d="M651.17 956.524C649.755 956.524 648.531 956.012 647.499 954.987C646.492 953.938 645.988 952.694 645.988 951.254C645.988 949.79 646.492 948.546 647.499 947.521C648.531 946.497 649.755 945.984 651.17 945.984C652.61 945.984 653.833 946.497 654.841 947.521C655.849 948.546 656.353 949.79 656.353 951.254C656.353 952.206 656.113 953.084 655.633 953.889C655.177 954.694 654.553 955.341 653.761 955.829C652.994 956.292 652.13 956.524 651.17 956.524Z" fill="white"/>
<path d="M674.716 955.975H667.662L694.474 881.025H701.672L728.484 955.975H721.43L698.325 889.918H697.821L674.716 955.975ZM679.791 927.247H716.356V933.395H679.791V927.247Z" fill="white"/>
<path d="M741.117 955.975V881.025H764.906C770.136 881.025 774.503 882.049 778.006 884.099C781.533 886.124 784.184 888.881 785.959 892.37C787.759 895.859 788.659 899.787 788.659 904.154C788.659 908.521 787.771 912.462 785.995 915.975C784.22 919.464 781.581 922.233 778.078 924.282C774.575 926.307 770.22 927.32 765.014 927.32H746.299V921.172H764.834C768.697 921.172 771.9 920.44 774.443 918.976C776.986 917.487 778.882 915.462 780.129 912.901C781.401 910.339 782.037 907.423 782.037 904.154C782.037 900.885 781.401 897.969 780.129 895.407C778.882 892.846 776.974 890.833 774.407 889.369C771.864 887.905 768.637 887.173 764.726 887.173H747.847V955.975H741.117Z" fill="white"/>
<path d="M804.458 955.975V881.025H828.247C833.477 881.025 837.844 882.049 841.347 884.099C844.874 886.124 847.525 888.881 849.301 892.37C851.1 895.859 852 899.787 852 904.154C852 908.521 851.112 912.462 849.337 915.975C847.561 919.464 844.922 922.233 841.419 924.282C837.916 926.307 833.561 927.32 828.355 927.32H809.641V921.172H828.175C832.038 921.172 835.241 920.44 837.784 918.976C840.327 917.487 842.223 915.462 843.47 912.901C844.742 910.339 845.378 907.423 845.378 904.154C845.378 900.885 844.742 897.969 843.47 895.407C842.223 892.846 840.315 890.833 837.748 889.369C835.205 887.905 831.978 887.173 828.067 887.173H811.188V955.975H804.458Z" fill="white"/>
</g>
<defs>
<radialGradient id="paint0_radial_6_152" cx="0" cy="0" r="1" gradientUnits="userSpaceOnUse" gradientTransform="translate(559.181 1271.1) rotate(-90) scale(1520.64)">
<stop stop-color="#18886D"/>
<stop offset="0.46875" stop-color="#136357"/>
<stop offset="0.995798" stop-color="#0B2A34"/>
</radialGradient>
<radialGradient id="paint1_radial_6_152" cx="0" cy="0" r="1" gradientUnits="userSpaceOnUse" gradientTransform="translate(559.181 1271.1) rotate(-90) scale(1520.64)">
<stop stop-color="#1AAC3A"/>
<stop offset="0.46875" stop-color="#136357"/>
<stop offset="0.995798" stop-color="#0B1134"/>
</radialGradient>
<radialGradient id="paint2_radial_6_152" cx="0" cy="0" r="1" gradientUnits="userSpaceOnUse" gradientTransform="translate(559.181 1271.1) rotate(-90) scale(1520.64)">
<stop stop-color="#A01AAC"/>
<stop offset="0.46875" stop-color="#361363"/>
<stop offset="0.995798" stop-color="#06224D"/>
</radialGradient>
<clipPath id="clip0_6_152">
<rect width="1151" height="1151" rx="269" fill="white"/>
</clipPath>
</defs>
</svg>
